<svg xmlns="http://www.w3.org/2000/svg" viewBox="0 0 486 498.73"><title>ico-accesorios</title><g id="Capa_2" data-name="Capa 2"><g id="Capa_1-2" data-name="Capa 1"><path d="M436.53,464.73a23.73,23.73,0,0,0,1.47-8V301.35a39.84,39.84,0,0,0,23.2-28.62H470a8,8,0,0,0,8-8,151.62,151.62,0,0,0-112.94-146.8,104,104,0,1,0-206.12.06A152.5,152.5,0,0,0,46,264.73a8,8,0,0,0,8,8h8.8A39.82,39.82,0,0,0,86,301.38V456.73a23.73,23.73,0,0,0,1.47,8H38v16H486v-16Z" style="fill:#ffc111"/><g id="Animal-Store"><path d="M365,343.73H269a16,16,0,0,0-16,16v48a16,16,0,0,0,16,16h96a16,16,0,0,0,16-16v-48A16,16,0,0,0,365,343.73Zm-96,64v-48h96v48Z" style="fill:#fff"/><path d="M234,477.13V365.53a18.6,18.6,0,0,0-18.6-18.6H159.6a18.6,18.6,0,0,0-18.6,18.6v111.6a18.6,18.6,0,0,0,18.6,18.6h55.8A18.6,18.6,0,0,0,234,477.13Zm-74.4-111.6h55.8v111.6H159.6Z" style="fill:#fff"/><path d="M224,98.73a24,24,0,1,0-24-24A24,24,0,0,0,224,98.73Zm0-32a8,8,0,1,1-8,8A8,8,0,0,1,224,66.73Z" style="fill:#262625"/><path d="M272,122.73a24,24,0,1,0-24-24A24,24,0,0,0,272,122.73Zm0-32a8,8,0,1,1-8,8A8,8,0,0,1,272,90.73Z" style="fill:#262625"/><path d="M200,98.73a24,24,0,1,0-24,24A24,24,0,0,0,200,98.73Zm-32,0a8,8,0,1,1,8,8A8,8,0,0,1,168,98.73Z" style="fill:#262625"/><path d="M224,114.73a40,40,0,1,0,40,40A40,40,0,0,0,224,114.73Zm0,64a24,24,0,1,1,24-24A24,24,0,0,1,224,178.73Z" style="fill:#262625"/><path d="M336,354.73H240a16,16,0,0,0-16,16v48a16,16,0,0,0,16,16h96a16,16,0,0,0,16-16v-48A16,16,0,0,0,336,354.73Zm-96,64v-48h96v48Z" style="fill:#262625"/><path d="M398.53,482.73a23.73,23.73,0,0,0,1.47-8V319.35a39.84,39.84,0,0,0,23.2-28.62H432a8,8,0,0,0,8-8,151.62,151.62,0,0,0-112.94-146.8,104,104,0,1,0-206.12.06A152.5,152.5,0,0,0,8,282.73a8,8,0,0,0,8,8h8.8A39.82,39.82,0,0,0,48,319.38V474.73a23.73,23.73,0,0,0,1.47,8H0v16H448v-16ZM384.18,186.54a135.38,135.38,0,0,1,39.6,88.19H416a8,8,0,0,0-8,8A24,24,0,0,1,389.83,306a21.07,21.07,0,0,1-5.83.74,24,24,0,0,1-24-24v-32a119.11,119.11,0,0,0-39.72-88.8,105,105,0,0,0,3.56-10.3A135.06,135.06,0,0,1,384.18,186.54Zm-248.93-9.88a104.37,104.37,0,0,0,17,21.21c-.1,1.6-.29,3.2-.29,4.86v80a24,24,0,0,1-48,0v-32A103.2,103.2,0,0,1,135.25,176.66ZM168,210.23a103.2,103.2,0,0,0,48,16.1v56.41a24,24,0,0,1-48,0Zm64,16.1a103.2,103.2,0,0,0,48-16.1v72.5a24,24,0,1,1-48,0Zm63.71-28.46a104.37,104.37,0,0,0,17-21.21A103.2,103.2,0,0,1,344,250.73v32a24,24,0,1,1-48,0v-80c0-1.66-.18-3.26-.29-4.86ZM224,34.73a88,88,0,1,1-88,88A88,88,0,0,1,224,34.73Zm-184,248a8,8,0,0,0-8-8H24.23a136.53,136.53,0,0,1,99.94-123.07,104.65,104.65,0,0,0,3.54,10.25A119.11,119.11,0,0,0,88,250.73v32a24,24,0,0,1-24,24,21.7,21.7,0,0,1-6-.8A23.9,23.9,0,0,1,40,282.73Zm136,200H112v-104a8,8,0,0,1,8-8h48a8,8,0,0,1,8,8Zm16,0v-104a24,24,0,0,0-24-24H120a24,24,0,0,0-24,24v104H72a8,8,0,0,1-8-8v-152a39.86,39.86,0,0,0,32-16.25,39.63,39.63,0,0,0,64,0,39.63,39.63,0,0,0,64,0,39.63,39.63,0,0,0,64,0,39.63,39.63,0,0,0,64,0,39.86,39.86,0,0,0,32,16.25v152a8,8,0,0,1-8,8Z" style="fill:#262625"/><rect x="152" y="410.73" width="16" height="32" style="fill:#262625"/></g></g></g></svg>