<svg xmlns="http://www.w3.org/2000/svg" width="64.261" height="51.219" viewBox="0 0 64.261 51.219"><g transform="translate(0 0)"><rect width="54.422" height="21.573" rx="5.62" transform="translate(9.839 25.458)" fill="#fff"/><ellipse cx="12.173" cy="12.024" rx="12.173" ry="12.024" transform="translate(6.975 13.08)" fill="#fff"/><path d="M11.825,0A11.959,11.959,0,0,1,23.686,12,11.87,11.87,0,0,1,11.861,23.97,11.959,11.959,0,0,1,0,11.966,11.87,11.87,0,0,1,11.825,0Z" transform="translate(18.827 23.496) rotate(-82.75)" fill="#fff"/><ellipse cx="13.605" cy="13.439" rx="13.605" ry="13.439" transform="translate(36.334 13.08)" fill="#fff"/><path d="M62,30.544H59.864a14.664,14.664,0,0,0-14.68-13.5H44.1V15.973a14.724,14.724,0,0,0-29.144-2.829,14.6,14.6,0,0,0-11.8,14.288v3.112H1.045A1.039,1.039,0,0,0,0,31.576,17.779,17.779,0,0,0,17.859,49.231H45.184a17.779,17.779,0,0,0,17.83-17.655A1.039,1.039,0,0,0,62,30.544Zm-4.3,0H54.594a9.466,9.466,0,0,0-18.79,0H32.624a12.632,12.632,0,0,1,25.134,0Zm-19.792,0a7.375,7.375,0,0,1,14.565,0ZM25.22,27.714a12.655,12.655,0,0,1-7.691-7.582h.329A7.317,7.317,0,0,1,25.22,27.4Zm-9.767-7.186a14.755,14.755,0,0,0,9.767,9.379v.637H10.512V27.431a7.278,7.278,0,0,1,4.941-6.861Zm16.054,12.1H42.635L23.187,41.861,7.934,32.623Zm.315-9.747a14.689,14.689,0,0,0-9.352-9.308,7.38,7.38,0,0,1,14.271,1.574,7.267,7.267,0,0,1-4.9,7.677ZM21.182,6.579A12.726,12.726,0,0,1,34.673,4.67a12.518,12.518,0,0,1,7.289,12.745,14.725,14.725,0,0,0-3.451,1.231A9.323,9.323,0,0,0,32.266,6.961a9.48,9.48,0,0,0-11.83,6.168,14.915,14.915,0,0,0-2.564-.226h-.687a12.457,12.457,0,0,1,4-6.323ZM5.256,27.431a12.623,12.623,0,0,1,25.22,0v3.112H27.326V27.431a9.46,9.46,0,0,0-18.919,0v3.112H5.256Zm39.928,19.72H17.859A15.675,15.675,0,0,1,2.105,32.623h1.8L22.528,43.94a1.057,1.057,0,0,0,1,0L47.49,32.623H60.881a15.674,15.674,0,0,1-15.7,14.528Z" transform="translate(0 1.988)" fill="#262625"/></g></svg>