<?xml version="1.0" encoding="utf-8"?>
<!-- Generator: Adobe Illustrator 21.0.0, SVG Export Plug-In . SVG Version: 6.00 Build 0)  -->
<svg version="1.1" id="Capa_1" xmlns="http://www.w3.org/2000/svg" xmlns:xlink="http://www.w3.org/1999/xlink" x="0px" y="0px"
	 viewBox="0 0 39.5 34.3" style="enable-background:new 0 0 39.5 34.3;" xml:space="preserve">
<style type="text/css">
	.st0{fill:#FFC111;}
	.st1{fill:#262625;}
</style>
<title>ico-pata-perro_1</title>
<g id="Capa_2">
	<g id="Capa_1-2">
		<path class="st0" d="M28.6,21.4c-2.5-2.2-3.3-6.3-7.3-6.3c-4.1,0-4.8,4.2-7.2,6.5c-2,1.9-8.2,4.3-6.3,7.5c3.6,6,6.1,0.7,13.5,0.7
			s10.1,5.3,13.5-0.7C36.9,25.6,30.8,23.4,28.6,21.4z"/>
		<path class="st0" d="M16.3,14.2c2.3,0,4.1-1.8,4.1-4.1l0,0C20.4,7.9,21-0.4,16.3,0s-5.2,7.6-4.1,10.1
			C13.1,12.2,14.1,14.2,16.3,14.2z"/>
		<path class="st0" d="M10.3,22.3c2.1-0.9,3-3.3,2.1-5.4c-0.9-2.1-4.8-9.1-7.8-7.6S4,18.2,5,20.2C5.9,22.3,8.3,23.2,10.3,22.3z"/>
		<path class="st0" d="M37.7,9.3c-2-0.7-2.8,2.7-4.4,4.7c-1.3,1.6-3.4,1.7-3.8,2.7c-0.8,2.1,1.2,5.1,3.4,5.9
			c2.1,0.8,4.4-0.3,5.2-2.4C38.8,18.1,41.2,10.6,37.7,9.3z"/>
		<path class="st0" d="M26.5,14.2c2.3,0,4-2.8,4.4-5C31.4,6.8,30.8,0,26.5,0s-4.1,7.8-4.1,10.1C22.4,12.3,24.2,14.2,26.5,14.2
			C26.4,14.2,26.5,14.2,26.5,14.2z"/>
		<path class="st1" d="M18.2,19.5c1.5,0,2.2,1,3.5,2.8c0.7,1.1,1.5,2.1,2.5,3c0.8,0.6,1.6,1.2,2.4,1.7c3,1.9,3.8,2.8,3.4,3.5
			c-1,1.8-1.6,1.8-1.9,1.8c-0.9-0.1-1.7-0.3-2.5-0.7c-2.3-0.9-4.8-1.4-7.4-1.5c-2.5,0-5,0.6-7.3,1.5c-0.8,0.3-1.6,0.6-2.5,0.7
			c-0.3,0-0.9,0-2-1.9C6,29.8,8.7,28,9.8,27.3c0.9-0.5,1.7-1.1,2.5-1.8c0.9-0.9,1.7-2,2.4-3.1C16,20.3,16.7,19.5,18.2,19.5
			 M18.2,17.5c-4.1,0-4.8,4.2-7.2,6.5c-2,1.9-8.2,4.3-6.3,7.5c1.3,2.2,2.4,2.9,3.7,2.9c2.3,0,5-2.2,9.8-2.2s7.6,2.1,9.9,2.1
			c1.3,0,2.4-0.7,3.7-2.9c2-3.5-4-5.8-6.3-7.7C23,21.6,22.2,17.5,18.2,17.5L18.2,17.5z"/>
		<path class="st1" d="M13.5,4.3c0.2,0,0.5,0.1,0.6,0.2c1.2,1.3,1.1,5.5,1.1,7.1c0,0.3,0,0.6,0,0.8c0,1.1-0.9,2.1-2.1,2.1
			c-0.8,0-1.3-0.7-2.3-2.9c-0.6-2-0.4-4.1,0.6-6c0.3-0.7,1.1-1.3,1.9-1.3H13.5 M13.5,2.3h-0.4c-4.6,0.4-5.2,7.6-4,10.1
			c0.9,2.1,1.8,4.1,4.1,4.1s4.1-1.8,4.1-4.1l0,0C17.2,10.2,17.8,2.3,13.5,2.3L13.5,2.3z"/>
		<path class="st1" d="M2.4,13.4L2.4,13.4 M2.4,13.4c1,0,3.7,3.5,5.1,6.6c0.5,1,0,2.3-1,2.7c-0.4,0.2-0.7,0.3-1,0.3
			c-0.8,0-1.6-0.5-1.9-1.2C2.1,18.3,1.6,13.9,2.4,13.4 M2.4,11.5c-0.3,0-0.6,0.1-0.9,0.2c-3,1.6-0.6,8.8,0.4,10.9
			c0.9,2.1,3.2,3.1,5.3,2.2s3.1-3.2,2.2-5.3c0-0.1-0.1-0.1-0.1-0.2C8.5,17.4,5.2,11.5,2.4,11.5L2.4,11.5z"/>
		<path class="st1" d="M34.3,13.5L34.3,13.5 M34.1,13.8c0.6,0.9,0.3,4.3-1.1,8.1c-0.3,0.8-1.1,1.4-2,1.4c-0.2,0-0.5,0-0.7-0.1
			c-1.2-0.6-2-1.7-2.2-3l0.4-0.2c1.2-0.5,2.3-1.3,3.1-2.3c0.5-0.7,1-1.5,1.5-2.3C33.4,14.8,33.7,14.3,34.1,13.8 M28.2,19.8
			L28.2,19.8 M34,11.6c-1.6,0-2.5,3-3.9,4.8c-1.3,1.6-3.4,1.7-3.8,2.7c-0.8,2.1,1.2,5.1,3.4,5.9c2.1,0.8,4.4-0.3,5.2-2.4l0,0
			c0.8-2.1,3.1-9.6-0.4-10.9C34.3,11.6,34.1,11.6,34,11.6L34,11.6z"/>
		<path class="st1" d="M23.4,4.3c0.5,0,0.9,0.2,1.2,0.6c1.2,1.5,1.4,4.9,1.2,6.2c-0.3,1.6-1.6,3.3-2.5,3.3c-1.1,0-2.1-0.9-2.1-2.1
			v-0.4C21.2,5.4,22.5,4.4,23.4,4.3L23.4,4.3 M23.3,2.3L23.3,2.3c-4.4,0.1-4.1,7.8-4.1,10.1s1.8,4.1,4.1,4.1l0,0c2.3,0,4-2.8,4.4-5
			C28.2,9.1,27.6,2.3,23.3,2.3L23.3,2.3z"/>
	</g>
</g>
</svg>
