<svg xmlns="http://www.w3.org/2000/svg" viewBox="0 0 39.54 34.34"><title>ico-pata-perro_1</title><g id="Capa_2" data-name="Capa 2"><g id="Capa_1-2" data-name="Capa 1"><path d="M28.63,21.44c-2.48-2.16-3.32-6.3-7.28-6.3-4.15,0-4.76,4.21-7.24,6.53-2,1.85-8.16,4.32-6.29,7.47,3.57,6,6.06.71,13.53.71s10.15,5.26,13.53-.71C36.89,25.61,30.83,23.36,28.63,21.44Z" style="fill:#ffc111"/><path d="M16.32,14.19a4.08,4.08,0,0,0,4.08-4.08C20.39,7.86,21-.42,16.32,0s-5.2,7.59-4.08,10.09C13.15,12.16,14.06,14.19,16.32,14.19Z" style="fill:#ffc111"/><path d="M10.34,22.31a4.08,4.08,0,0,0,2.08-5.38c-.91-2.06-4.82-9.13-7.81-7.59S4,18.17,5,20.22A4.09,4.09,0,0,0,10.34,22.31Z" style="fill:#ffc111"/><path d="M37.68,9.35c-2-.72-2.84,2.69-4.44,4.74-1.25,1.61-3.42,1.74-3.76,2.67-.77,2.11,1.23,5.13,3.35,5.9a4.08,4.08,0,0,0,5.22-2.44C38.83,18.12,41.17,10.63,37.68,9.35Z" style="fill:#ffc111"/><path d="M26.46,14.19c2.25,0,4-2.77,4.43-5C31.34,6.8,30.79-.05,26.46,0s-4.08,7.84-4.08,10.09A4.08,4.08,0,0,0,26.46,14.19Z" style="fill:#ffc111"/><path d="M18.18,19.47c1.51,0,2.24,1,3.52,2.83a15,15,0,0,0,2.45,3A20.35,20.35,0,0,0,26.56,27c3,1.91,3.84,2.76,3.41,3.52-1,1.83-1.63,1.83-1.92,1.83a9.39,9.39,0,0,1-2.52-.67,21.21,21.21,0,0,0-7.36-1.47,20.61,20.61,0,0,0-7.33,1.49,9,9,0,0,1-2.47.67c-.27,0-.89,0-2-1.89C6,29.78,8.67,28,9.82,27.27a19,19,0,0,0,2.49-1.81,15.19,15.19,0,0,0,2.37-3.09c1.33-2.1,2-2.9,3.51-2.9m0-2c-4.15,0-4.76,4.21-7.24,6.53-2,1.85-8.16,4.32-6.29,7.47,1.29,2.18,2.44,2.87,3.74,2.87,2.29,0,5-2.17,9.8-2.17s7.58,2.14,9.88,2.14c1.3,0,2.43-.69,3.66-2.85,2-3.53-4.05-5.78-6.25-7.7-2.48-2.16-3.32-6.3-7.28-6.3Z" style="fill:#262625"/><path d="M13.5,4.33a.76.76,0,0,1,.62.24c1.24,1.26,1.15,5.5,1.12,7.1,0,.3,0,.56,0,.77a2.08,2.08,0,0,1-2.08,2.08c-.82,0-1.28-.72-2.26-2.9a8.17,8.17,0,0,1,.56-6,2.32,2.32,0,0,1,1.88-1.33h.16m0-2-.35,0c-4.69.43-5.2,7.59-4.08,10.09.92,2.06,1.83,4.08,4.08,4.08a4.08,4.08,0,0,0,4.08-4.08c0-2.19.58-10.11-3.73-10.11Z" style="fill:#262625"/><path d="M2.37,13.45h0m0,0c1,0,3.71,3.54,5.07,6.62A2.08,2.08,0,0,1,5.53,23a2.09,2.09,0,0,1-1.91-1.24c-1.54-3.5-2.06-7.83-1.26-8.29m0-2a1.91,1.91,0,0,0-.89.22c-3,1.55-.56,8.82.35,10.88a4.08,4.08,0,1,0,7.46-3.3c-.82-1.86-4.09-7.81-6.91-7.81Z" style="fill:#262625"/><path d="M34.31,13.51h0m-.24.26c.61.89.34,4.27-1.06,8.12a2.08,2.08,0,0,1-2,1.37,2.05,2.05,0,0,1-.71-.13,3.92,3.92,0,0,1-2.21-3l.41-.2a7.88,7.88,0,0,0,3.1-2.25,18.62,18.62,0,0,0,1.47-2.34,15.64,15.64,0,0,1,.95-1.55m-5.87,6h0m5.8-8.2c-1.61,0-2.47,3-3.92,4.84-1.25,1.61-3.42,1.74-3.76,2.67-.77,2.11,1.23,5.13,3.35,5.9a4.07,4.07,0,0,0,5.22-2.44c.77-2.11,3.12-9.6-.38-10.88a1.51,1.51,0,0,0-.52-.1Z" style="fill:#262625"/><path d="M23.36,4.35a1.45,1.45,0,0,1,1.2.6c1.24,1.49,1.44,4.9,1.2,6.24-.29,1.62-1.56,3.34-2.46,3.34a2.08,2.08,0,0,1-2.08-2.08v-.36c0-6.7,1.31-7.72,2.11-7.74h0m0-2H23.3c-4.32.07-4.08,7.84-4.08,10.09a4.08,4.08,0,0,0,4.08,4.08c2.25,0,4-2.77,4.43-5,.44-2.4-.1-9.19-4.37-9.19Z" style="fill:#262625"/></g></g></svg>