<svg xmlns="http://www.w3.org/2000/svg" viewBox="0 0 40.27 42.95"><title>ico-pata-gato_1</title><g id="Capa_2" data-name="Capa 2"><g id="Capa_1-2" data-name="Capa 1"><path d="M29.33,30.28c-2.48-2.32-3.09-6.53-7.24-6.53-4,0-4.81,4.14-7.28,6.3-2.2,1.92-8.26,4.17-6.25,7.7,3.38,6,6.06.71,13.53.71s10,5.31,13.53-.71C37.48,34.6,31.31,32.13,29.33,30.28Z" style="fill:#ffc111"/><path d="M27.12,22.8c2.25,0,3.16-2,4.08-4.08,1.12-2.51.61-9.66-4.08-10.09S23,16.47,23,18.72A4.08,4.08,0,0,0,27.12,22.8Z" style="fill:#ffc111"/><path d="M38.82,18c-3-1.55-6.9,5.53-7.81,7.59a4.08,4.08,0,1,0,7.46,3.3C39.39,26.78,41.81,19.5,38.82,18Z" style="fill:#ffc111"/><path d="M10.6,31.28c2.12-.77,4.12-3.79,3.35-5.9-.34-.93-2.51-1.07-3.76-2.67C8.6,20.65,7.72,17.25,5.76,18c-3.49,1.28-1.15,8.77-.38,10.88A4.08,4.08,0,0,0,10.6,31.28Z" style="fill:#ffc111"/><path d="M17,22.8A4.08,4.08,0,0,0,21,18.72c0-2.25.25-10-4.08-10.09s-4.87,6.78-4.43,9.19C12.94,20,14.72,22.8,17,22.8Z" style="fill:#ffc111"/><path d="M38.27,15.95l2,.66a14.82,14.82,0,0,0-2-7.1Z" style="fill:#ffc111"/><path d="M26.36,0V6.64l2,.46A14.83,14.83,0,0,0,26.36,0Z" style="fill:#ffc111"/><path d="M5,9.51a14.82,14.82,0,0,0-2,7.1l2-.66Z" style="fill:#ffc111"/><path d="M16.91,0a14.82,14.82,0,0,0-2,7.1l2-.53Z" style="fill:#ffc111"/><path d="M19.08,28.09c1.53,0,2.18.79,3.51,2.9A15.16,15.16,0,0,0,25,34.07a19,19,0,0,0,2.49,1.8c1.15.75,3.85,2.51,3.45,3.18C29.77,41,29.15,41,28.88,41a9,9,0,0,1-2.47-.67,20.62,20.62,0,0,0-7.33-1.49,21.21,21.21,0,0,0-7.36,1.47,9.39,9.39,0,0,1-2.52.67c-.28,0-.88,0-1.92-1.83-.43-.75.4-1.61,3.42-3.52a20.35,20.35,0,0,0,2.41-1.69,15,15,0,0,0,2.44-3c1.27-1.86,2-2.83,3.52-2.83m0-2c-4,0-4.81,4.14-7.28,6.3-2.2,1.92-8.26,4.17-6.25,7.7,1.23,2.16,2.36,2.85,3.66,2.85,2.29,0,5.11-2.14,9.88-2.14S26.59,43,28.88,43c1.3,0,2.44-.69,3.74-2.87,1.87-3.15-4.3-5.62-6.29-7.47-2.48-2.32-3.09-6.52-7.24-6.52Z" style="fill:#262625"/><path d="M23.77,12.95h.16a2.31,2.31,0,0,1,1.88,1.33,8.18,8.18,0,0,1,.56,6c-1,2.17-1.43,2.9-2.25,2.9A2.08,2.08,0,0,1,22,21.05c0-.21,0-.47,0-.77,0-1.6-.11-5.84,1.12-7.1a.76.76,0,0,1,.62-.24m0-2c-4.31,0-3.73,7.91-3.73,10.11a4.08,4.08,0,0,0,4.08,4.08c2.25,0,3.16-2,4.08-4.08,1.12-2.51.61-9.66-4.08-10.09l-.35,0Z" style="fill:#262625"/><path d="M34.91,22.07c.8.45.28,4.79-1.26,8.29a2.08,2.08,0,0,1-2.75,1.06,2.08,2.08,0,0,1-1.06-2.74c1.36-3.07,4-6.57,5.07-6.61m0-2c-2.82,0-6.09,5.95-6.91,7.81a4.08,4.08,0,1,0,7.46,3.3c.91-2.06,3.33-9.34.34-10.88a1.91,1.91,0,0,0-.89-.22Z" style="fill:#262625"/><path d="M3.45,22.17h0m-.24.21a15.73,15.73,0,0,1,.94,1.54,18.55,18.55,0,0,0,1.48,2.35,7.89,7.89,0,0,0,3.1,2.24l.41.2a3.92,3.92,0,0,1-2.21,3,2.06,2.06,0,0,1-.71.13,2.09,2.09,0,0,1-2-1.37c-1.4-3.84-1.67-7.22-1.06-8.11m.08-2.18a1.5,1.5,0,0,0-.52.1c-3.49,1.28-1.15,8.77-.38,10.88A4.07,4.07,0,0,0,7.6,33.62c2.12-.77,4.12-3.79,3.35-5.9-.34-.93-2.51-1.07-3.76-2.67C5.74,23.17,4.89,20.2,3.28,20.2Z" style="fill:#262625"/><path d="M13.9,13h0c.8,0,2.14,1,2.11,7.73v.36A2.08,2.08,0,0,1,14,23.14c-.9,0-2.17-1.72-2.46-3.34-.24-1.34,0-4.75,1.2-6.24a1.45,1.45,0,0,1,1.2-.6m0-2c-4.27,0-4.8,6.8-4.37,9.19.4,2.21,2.18,5,4.43,5A4.08,4.08,0,0,0,18,21.05C18,18.8,18.3,11,14,11Z" style="fill:#262625"/><path d="M35.27,11.85v6.44l2,.66a14.82,14.82,0,0,0-2-7.1Z" style="fill:#262625"/><path d="M23.36,2.33V9l2,.46a14.83,14.83,0,0,0-2-7.09Z" style="fill:#262625"/><path d="M2,11.85a14.82,14.82,0,0,0-2,7.1l2-.66V11.85Z" style="fill:#262625"/><path d="M13.91,2.33a14.82,14.82,0,0,0-2,7.1l2-.53V2.33Z" style="fill:#262625"/></g></g></svg>