<svg xmlns="http://www.w3.org/2000/svg" viewBox="0 0 540.15 534.15"><title>ico-promociones_1</title><g id="Capa_2" data-name="Capa 2"><g id="Layer_1" data-name="Layer 1"><path d="M289.58,0C151.09,0,39,112.07,39,250.58S151.07,501.15,289.58,501.15,540.15,389.08,540.15,250.58,428.08,0,289.58,0Z" style="fill:#ffc111"/><path d="M203.67,424.62a13,13,0,0,1-11.3-19L344.72,112.2a13,13,0,1,1,23.07,12L215.44,417.61A13,13,0,0,1,203.67,424.62Z" style="fill:#fff"/><path d="M380.08,392.83a65.58,65.58,0,1,1,65.58-65.58A65.66,65.66,0,0,1,380.08,392.83Zm0-109.17a43.58,43.58,0,1,0,43.58,43.58A43.63,43.63,0,0,0,380.08,283.66Z" style="fill:#fff"/><path d="M182.09,265.33a65.58,65.58,0,1,1,65.58-65.58A65.66,65.66,0,0,1,182.09,265.33Zm0-109.16a43.58,43.58,0,1,0,43.58,43.58A43.63,43.63,0,0,0,182.09,156.17Z" style="fill:#fff"/><path d="M247.58,39C110.74,39,0,149.73,0,286.58S110.73,534.15,247.58,534.15,495.16,423.42,495.16,286.58,384.43,39,247.58,39Zm0,470.24c-122.77,0-222.66-99.88-222.66-222.66S124.81,63.92,247.58,63.92,470.24,163.8,470.24,286.58,370.35,509.23,247.58,509.23Z" style="fill:#262625"/><path d="M166.17,449.62a13,13,0,0,1-11.3-19L307.22,137.2a13,13,0,1,1,23.07,12L177.94,442.61A13,13,0,0,1,166.17,449.62Z" style="fill:#252526"/><path d="M342.58,417.82a65.58,65.58,0,1,1,65.58-65.58A65.66,65.66,0,0,1,342.58,417.82Zm0-109.17a43.58,43.58,0,1,0,43.58,43.58A43.63,43.63,0,0,0,342.58,308.66Z" style="fill:#252526"/><path d="M144.59,290.33a65.58,65.58,0,1,1,65.58-65.58A65.66,65.66,0,0,1,144.59,290.33Zm0-109.16a43.58,43.58,0,1,0,43.58,43.58A43.63,43.63,0,0,0,144.59,181.17Z" style="fill:#252526"/></g></g></svg>