<svg xmlns="http://www.w3.org/2000/svg" width="53.483" height="52.829" viewBox="0 0 53.483 52.829"><ellipse cx="15.909" cy="18.53" rx="15.909" ry="18.53" transform="translate(15.346 7.688)" fill="#fff"/><path d="M2.294,30.332H8.326a12.525,12.525,0,0,0,.239,2.108,1.545,1.545,0,0,0,1.525,1.31h.278a1.555,1.555,0,0,0,1.036-.6A1.518,1.518,0,0,0,11.694,32a19.719,19.719,0,0,1-.252-3.143c0-8.748,5.727-15.924,12.94-16.461h.862a11.7,11.7,0,0,1,2.93.38h.915l.159-.079h0l.133-.092h0l.106-.092h0l.119-.144h0l.093-.144h0l5.2-9.625a1.517,1.517,0,0,0,.2-1.589A1.56,1.56,0,0,0,32.336.88l-4.64,8.6a14.759,14.759,0,0,0-2.506-.223H23.771a4.556,4.556,0,0,0-1.326.2h0L17.978.906A1.562,1.562,0,0,0,15.943.328a1.524,1.524,0,0,0-.723,1.966l4.2,8.146a17.683,17.683,0,0,0-8.445,7.713,6.444,6.444,0,0,1-5.621-6.3,1.553,1.553,0,0,0-3.089,0,9.507,9.507,0,0,0,7.4,9.167,21.886,21.886,0,0,0-1.326,6.207H2.294a1.531,1.531,0,0,0,0,3.051Z" transform="translate(1.558 0.182)" fill="#262625"/><path d="M39.811,20.7H33.818a22.132,22.132,0,0,0-1.326-6.22A9.506,9.506,0,0,0,39.85,5.316a1.553,1.553,0,0,0-3.089,0,6.455,6.455,0,0,1-6.324,6.4,1.538,1.538,0,0,0-1.75,1.126v.262h0a1.506,1.506,0,0,0,.212.694,18.963,18.963,0,0,1,1.856,8.25c0,9.088-6.191,16.487-13.8,16.487A12.547,12.547,0,0,1,8.1,34.689a1.565,1.565,0,0,0-2.109.065A1.519,1.519,0,0,0,5.9,36.837,15.629,15.629,0,0,0,16.954,41.6c5.873,0,11.057-3.483,14.08-8.761l4.044,3.994a1.563,1.563,0,0,0,1.54.49,1.542,1.542,0,0,0,1.144-1.13,1.521,1.521,0,0,0-.5-1.521L32.426,29.9a21.885,21.885,0,0,0,1.326-6.312h5.993a1.557,1.557,0,0,0,1.462-.719,1.516,1.516,0,0,0,0-1.613,1.557,1.557,0,0,0-1.462-.719Z" transform="translate(9.754 6.798)" fill="#262625"/><path d="M53.027.446a1.565,1.565,0,0,0-2.188,0L.46,50.209a1.519,1.519,0,0,0-.007,2.167,1.565,1.565,0,0,0,2.194.007L53.027,2.619a1.519,1.519,0,0,0,0-2.174Z" transform="translate(-0.002 0)" fill="#262625"/></svg>