<svg xmlns="http://www.w3.org/2000/svg" viewBox="0 0 40.3 40.3"><title>anti-pulga</title><g id="Capa_2" data-name="Capa 2"><g id="Capa_1-2" data-name="Capa 1"><ellipse cx="23.58" cy="20.02" rx="12" ry="14.15" style="fill:#ffc111"/><path d="M2.91,23.3H7.46c0,.54.09,1.08.18,1.61a1.17,1.17,0,0,0,1.15,1H9a1.17,1.17,0,0,0,1-1.34,15.24,15.24,0,0,1-.19-2.4c0-6.68,4.32-12.16,9.76-12.57h.65a8.72,8.72,0,0,1,2.21.29h.45l.14,0h0l.1,0h0l.12-.06h0l.1-.07,0,0,.08-.07,0,0,.09-.11,0,0,.07-.11v0l3.92-7.35A1.17,1.17,0,1,0,25.57.81l-3.5,6.57a11,11,0,0,0-1.89-.17h-.65l-.42,0q-.51,0-1,.15l0,0L14.74.83a1.17,1.17,0,0,0-2.08,1.06l3.17,6.22A13.4,13.4,0,0,0,9.46,14,4.9,4.9,0,0,1,5.22,9.19a1.17,1.17,0,0,0-2.33,0,7.24,7.24,0,0,0,5.58,7,16.89,16.89,0,0,0-1,4.74H2.91a1.17,1.17,0,0,0,0,2.33Z" style="fill:#262625"/><path d="M37.39,21H32.87a17.08,17.08,0,0,0-1-4.75,7.24,7.24,0,0,0,5.55-7,1.17,1.17,0,0,0-2.33,0,4.9,4.9,0,0,1-4.77,4.89A1.16,1.16,0,0,0,29,15v.2s0,0,0,0,0,0,0,0h0a1.16,1.16,0,0,0,.16.53,14.63,14.63,0,0,1,1.4,6.3c0,6.94-4.67,12.59-10.41,12.59a9.41,9.41,0,0,1-6.68-2.94,1.17,1.17,0,0,0-1.66,1.64,11.72,11.72,0,0,0,8.34,3.64c4.43,0,8.34-2.66,10.62-6.69l3.05,3.05a1.17,1.17,0,1,0,1.65-1.65l-3.65-3.65a16.89,16.89,0,0,0,1-4.82h4.52a1.17,1.17,0,1,0,0-2.33Z" style="fill:#262625"/><path d="M40,.34a1.17,1.17,0,0,0-1.65,0l-38,38A1.17,1.17,0,0,0,2,40L40,2A1.17,1.17,0,0,0,40,.34Z" style="fill:#262625"/></g></g></svg>