<svg xmlns="http://www.w3.org/2000/svg" viewBox="0 0 39.69 39.69"><defs><style>.a{fill:#ffc111;}</style></defs><title>casitas</title><path class="a" d="M21.5,1.29,4,18.83A2,2,0,0,0,6.73,21.6L9,19.28,21.5,6.82,33.94,19.28l2.31,2.31A2,2,0,1,0,39,18.83Z"/><path class="a" d="M24.38,19.31a1.92,1.92,0,0,1-.45,1.77,1.45,1.45,0,0,1-1.81.18,1.16,1.16,0,0,0-1.25,0,1.45,1.45,0,0,1-1.81-.18,1.92,1.92,0,0,1-.44-1.77,1.64,1.64,0,0,1,.58-.93l1.5-1.2.09-.08a.94.94,0,0,1,1.43,0l.09.07,1.5,1.2A1.65,1.65,0,0,1,24.38,19.31ZM21.36,7,9.76,18.57a2,2,0,0,0-.56,1.7L10.8,30.61l.59,3.81a2,2,0,0,0,2,1.68h1.91a2,2,0,0,0,2-2V29.06a4.25,4.25,0,1,1,8.51,0v5.06a2,2,0,0,0,2,2H28a3.93,3.93,0,0,0,3.89-3.33l.33-2.16,1.6-10.33a2,2,0,0,0-.56-1.71L21.63,7A.19.19,0,0,0,21.36,7Z"/><path d="M21.19,23.59A2.61,2.61,0,0,1,20,23.27a.44.44,0,0,0-.55,0,2.18,2.18,0,0,1-2.71-.33,2.68,2.68,0,0,1-.63-2.46,2.39,2.39,0,0,1,.84-1.34l1.52-1.22a1.69,1.69,0,0,1,2.5,0l1.52,1.22a2.4,2.4,0,0,1,.84,1.33,2.68,2.68,0,0,1-.63,2.46A2,2,0,0,1,21.19,23.59ZM19.7,21.68a2.07,2.07,0,0,1,1,.27.75.75,0,0,0,.91,0,1.17,1.17,0,0,0,.27-1.08.9.9,0,0,0-.32-.52L20,19.09l0,0c-.24-.22-.26-.22-.5,0l0,0-1.55,1.23a.89.89,0,0,0-.32.52,1.17,1.17,0,0,0,.26,1.08.75.75,0,0,0,.91,0,2.06,2.06,0,0,1,1-.27Zm-.76-3.17h0Z"/><path d="M21.35,16.24a.75.75,0,0,1-.75-.75v-.81a.75.75,0,1,1,1.5,0v.81A.75.75,0,0,1,21.35,16.24Z"/><path d="M18,16.24a.75.75,0,0,1-.75-.75v-.81a.75.75,0,1,1,1.5,0v.81A.75.75,0,0,1,18,16.24Z"/><path d="M15.63,18.53a.75.75,0,0,1-.63-.34l-.32-.5a.75.75,0,0,1,1.26-.81l.32.5a.75.75,0,0,1-.63,1.15Z"/><path d="M32.41,23.82a.83.83,0,0,1,1.4-.46l.11.11a2.71,2.71,0,0,0,3.83-3.83l-6.38-6.39a.48.48,0,0,0-.29-.12.81.81,0,0,0-.9.89.48.48,0,0,0,.12.29l6.38,6.39a1.21,1.21,0,0,1,0,1.71,1.21,1.21,0,0,1-1.71,0L20.23,7.64A.73.73,0,0,0,20,7.5a.81.81,0,0,0-.57,0,.73.73,0,0,0-.25.14L4.4,22.42a1.19,1.19,0,0,1-.85.35h0a2.19,2.19,0,0,1-.85-.35,1.21,1.21,0,0,1,0-1.71L19.11,4.28a.83.83,0,0,1,1.17,0l5.27,5.27a.48.48,0,0,0,.29.12.81.81,0,0,0,.9-.89.48.48,0,0,0-.12-.29L20.23,2.11A.73.73,0,0,0,20,2a.81.81,0,0,0-.57,0,.73.73,0,0,0-.25.14L1.64,19.65a2.71,2.71,0,0,0,0,3.83,2.69,2.69,0,0,0,1.91.79h0a2.68,2.68,0,0,0,1.91-.79l.11-.11a.83.83,0,0,1,1.4.46L9.07,37.69a.83.83,0,0,0,.82.7H29.46a.83.83,0,0,0,.82-.7Zm-12.13-14L31,20.6a.83.83,0,0,1,.23.71L29,36.2a.83.83,0,0,1-.82.7H25.53a.83.83,0,0,1-.83-.83V30.41a5,5,0,1,0-10,0v5.67a.83.83,0,0,1-.83.83H11.23a.83.83,0,0,1-.82-.7L8.11,21.31a.83.83,0,0,1,.23-.71L19.11,9.82A.83.83,0,0,1,20.28,9.82ZM17,36.7a.83.83,0,0,1-.83-.83V30.41a3.5,3.5,0,1,1,7,0v5.47a.83.83,0,0,1-.83.83Z"/></svg>