<svg xmlns="http://www.w3.org/2000/svg" viewBox="0 0 52 52"><defs><style>.a{fill:none;}.b{fill:#fff;}</style></defs><title>ico-facebook</title><path class="a" d="M52,26A26,26,0,1,0,21.94,51.68V33.52h-6.6V26h6.6V20.27c0-6.52,3.88-10.12,9.82-10.12a40,40,0,0,1,5.82.51v6.4H34.3c-3.23,0-4.24,2-4.24,4.06V26h7.21l-1.15,7.52H30.06V51.68A26,26,0,0,0,52,26Z"/><path class="b" d="M36.12,33.52,37.27,26H30.06V21.12c0-2.06,1-4.06,4.24-4.06h3.28v-6.4a40,40,0,0,0-5.82-.51c-5.94,0-9.82,3.6-9.82,10.12V26h-6.6v7.52h6.6V51.68a26.27,26.27,0,0,0,8.13,0V33.52Z"/></svg>