<svg xmlns="http://www.w3.org/2000/svg" xmlns:xlink="http://www.w3.org/1999/xlink" viewBox="0 0 27.64 28"><defs><style>.a{fill:none;clip-rule:evenodd;}.b{clip-path:url(#a);}.c{fill:#5981ed;}.d{clip-path:url(#b);}.e{fill:#67a659;}.f{clip-path:url(#c);}.g{fill:#e9ba2b;}.h{clip-path:url(#d);}.i{fill:#c84337;}</style><clipPath id="a"><path class="a" d="M22.64,14.2a10.34,10.34,0,0,0-.16-1.84H14v3.48h4.84A4.14,4.14,0,0,1,17,18.56v2.26H20a8.78,8.78,0,0,0,2.68-6.61Zm0,0"/></clipPath><clipPath id="b"><path class="a" d="M14,23a8.59,8.59,0,0,0,6-2.18L17,18.56A5.43,5.43,0,0,1,9,15.71H6V18a9,9,0,0,0,8,5Zm0,0"/></clipPath><clipPath id="c"><path class="a" d="M9,15.71a5.32,5.32,0,0,1,0-3.42V10H6A9,9,0,0,0,6,18l3-2.33Zm0,0"/></clipPath><clipPath id="d"><path class="a" d="M14,8.58a4.86,4.86,0,0,1,3.44,1.35L20,7.34A8.65,8.65,0,0,0,14,5a9,9,0,0,0-8,5l3,2.33a5.36,5.36,0,0,1,5-3.71Zm0,0"/></clipPath></defs><title>google</title><g class="b"><rect class="c" x="9" y="7.36" width="18.64" height="18.46"/></g><g class="d"><rect class="e" x="0.96" y="10.71" width="24" height="17.29"/></g><g class="f"><rect class="g" y="4.96" width="13.96" height="18.08"/></g><g class="h"><rect class="i" x="0.96" width="24.06" height="17.29"/></g></svg>