<svg xmlns="http://www.w3.org/2000/svg" viewBox="0 0 534 435"><defs><style>.a{fill:#d08c32;}.b{fill:#cd7d1e;}.c{fill:#f7ebc2;}.d{fill:#f4e19d;}.e{fill:#ecdcc5;}.f{fill:#aa8041;opacity:0.2;}.g{fill:#353634;}.h{fill:#fff;}.i{fill:#d1d2d4;}.j{fill:#7e7e7e;}.k{fill:#a0a2a2;}.l{fill:#e6ac9e;}</style></defs><title>no-image-pet</title><path class="a" d="M468.38,245.4s10.45,15.76,22.7,12.37,18.72-9.25,18.72-9.25-3.93,10.52-9.28,12.35,9.58.38,15.9-8-7.5,18.25-19.31,16.54c0,0,10.19,5.55,15.35,2.31s-30,29.52-54.9-8.06S468.38,245.4,468.38,245.4Z"/><path class="b" d="M470.93,256.77c1.18.71,2.38,1.39,3.61,2,1.36.44,2.73.85,4.12,1.19s5.76.77,5.41.82a69.12,69.12,0,0,0,7.48,0c1.24-.07,6.52-.92,5.6-.67a60.88,60.88,0,0,0,6.95-1.85c3.44-3.72,5.71-9.79,5.71-9.79s-6.46,5.86-18.72,9.25-22.7-12.37-22.7-12.37-9.92-5.36-15.66-4.91A36.26,36.26,0,0,1,470.93,256.77Z"/><path class="c" d="M486,312c-3.32-12,5.09-94-68.13-88s-74.42,26.81-74.42,26.81a58.17,58.17,0,0,0-12.8,24.64c-.15-.26-.35-.19-.39.6s-.11,1.42-.18,2.13a49.44,49.44,0,0,0-.62,4.94,108.44,108.44,0,0,1-4.22,16.8c-.11.34.08,2.55.31,2.24,1.62-2.14,3.14-4.33,4.62-6.55,0,.13,0,.27.07.4.14.69.26,1.36.39,2-.39,2.09-.73,4.19-.95,6.34,0,.27.25,3.08.66,2.15s.8-1.75,1.22-2.61c2.57,19.44-2.36,24.6-2.25,25.31s.12,14.81,25.33,6c0,0,6.8-5.6,6.8-20.4,0,0,9.6-2,10.4,4.4s0,20-2,22.41,10.8,12,22,3.6c0,0,10-8,11.2-19.2l25.21,1.2s-4,17.2,5.59,17.61,26,3.2,22.82-22.41l5.2-3.2s4.4,12.4,2.4,16.4,8.8,3.2,15.6-2.8S489.32,324,486,312Z"/><path class="d" d="M454.78,253.89c16.12,13.83,25.21,32.66,30.5,52.71-1.73-21.79-1.32-88.07-67.41-82.66-44,3.61-62,12.57-69.34,19.13C382.16,225.77,425.87,229.09,454.78,253.89Z"/><path class="a" d="M422.67,154.73s46.81-18.4,60,24-16.4,48-30,38.81-6.8-37.21-20.41-34.41S398.67,160.73,422.67,154.73Z"/><path class="b" d="M434.2,156.38c20.77-2.77,41.71,14.43,45.87,34.37a72.31,72.31,0,0,1,1.14,23.3c5.05-6.5,6.95-17.74,1.47-35.32-13.2-42.41-60-24-60-24-7.74,1.93-10.89,5.87-11.17,10.21C418.16,159.11,425.38,157.56,434.2,156.38Z"/><path class="e" d="M427.89,166.2s28-11.66,35.85,15.21-9.8,30.41-17.93,24.59-4.06-23.57-12.19-21.8S413.55,170,427.89,166.2Z"/><path class="f" d="M428.62,168h.47a34.39,34.39,0,0,1,34.39,34.39c0,.17,0,.33,0,.5,2.56-4.22,3.33-11.11.29-21.48-7.89-26.87-35.85-15.21-35.85-15.21a11.09,11.09,0,0,0-4.57,2.26A33.94,33.94,0,0,1,428.62,168Z"/><path class="a" d="M372.3,139.86s-4.88-50.06-48.66-42.55-35.31,36.43-20.93,44.36,36.24-10.85,39.92,2.54S377.86,164,372.3,139.86Z"/><path class="b" d="M365.58,130.35c-7-19.76-31.81-30.59-51.46-25.25a72.35,72.35,0,0,0-21.27,9.58c3.49-7.45,12.64-14.25,30.79-17.37,43.78-7.51,48.66,42.55,48.66,42.55,1.79,7.78-.28,12.37-4,14.59C370.44,145.88,368.54,138.74,365.58,130.35Z"/><path class="e" d="M359.7,140.43s-2.32-30.21-29.84-25S307.22,138,316.11,142.55s22.84-7.09,25,1S362.83,154.93,359.7,140.43Z"/><path class="f" d="M357.77,140.6l-.21-.41a34.39,34.39,0,0,0-46.26-15l-.43.25c2.6-4.2,8.38-8,19-10,27.52-5.18,29.84,25,29.84,25a11.07,11.07,0,0,1,.07,5.09A34,34,0,0,0,357.77,140.6Z"/><path class="c" d="M430.28,169.93c-2.7-12.16-8-20.48-14.36-26.14-.55-7.89-5.6-23-14.76-24.17-.32,0-.35,1.27-.35,1.41a21.55,21.55,0,0,0,2.5,10.27c-3.83-3.29-7.55-7.1-12.36-4.32-.55.32-.4,2.54,0,3a29.53,29.53,0,0,0,4,3.61c-.29,0-.58,0-.86.06a74.66,74.66,0,0,0-29.86,1.1c-124.82,48.41-53.21,129.23,5.2,140.43S441.48,220.34,430.28,169.93Z"/><path class="d" d="M365.06,263.51c-28.87-2-54.88-23.66-68.61-50.9,6.47,30.4,41.62,56.53,73,62.55,38.14,7.32,57.17-18.29,62.67-51C418.87,249.33,396.07,267.66,365.06,263.51Z"/><path class="a" d="M385.47,169.13s-17.2,6.4-15.2,45.21,52.81,25.61,49.21-2S405.87,163.53,385.47,169.13Z"/><ellipse class="g" cx="343.69" cy="221.31" rx="16.76" ry="25.36" transform="translate(-29.26 388.68) rotate(-56.95)"/><ellipse class="g" cx="343.87" cy="179.78" rx="8.82" ry="4.89" transform="translate(-34.08 267.63) rotate(-40.69)"/><circle class="h" cx="344.18" cy="173.81" r="2.78" transform="translate(-30.14 266.31) rotate(-40.67)"/><ellipse class="g" cx="391.69" cy="204.66" rx="8.82" ry="4.89" transform="translate(149.4 574.27) rotate(-84.34)"/><circle class="h" cx="396.4" cy="200.98" r="2.78" transform="translate(157.4 575.69) rotate(-84.36)"/><ellipse class="h" cx="405.67" cy="185.31" rx="2.74" ry="6.54" transform="translate(-10.63 345.32) rotate(-45.58)"/><ellipse class="h" cx="354.84" cy="155.04" rx="2.74" ry="6.54" transform="translate(102.15 448.46) rotate(-72.87)"/><path class="i" d="M110.4,245.27S87.35,243.05,83.8,228s-.89-78-37.69-80.7-23.5,19.07-12,17.29,22.45-14.63,32.06,35.91,11.39,48.33,40.21,56.31S110.4,245.27,110.4,245.27Z"/><path class="i" d="M72.36,164.67c4.69,5.05,6.74,12.08,7.5,19.37a73.75,73.75,0,0,1,2.27,14.47c.24,4,.65,10.64-2,14-.11.14-.17-.94-.15-1a72.54,72.54,0,0,0,.25-19.3c0,3.52-.19,6.94-.42,10.08,0,.6-.39,1.3-.47.27-1-13-1.08-24.44-7.13-36.41A3,3,0,0,1,72.36,164.67Z"/><path class="i" d="M59.8,149c8.5,4.77,11.37,13.55,13,22.43.15.84-.51,5.85-.73,5.5-.76-1.2-.76-5.24.16-6.36.23-.28-2.15-5.61-2.2-5.75a34.29,34.29,0,0,0-3-5.07,100.85,100.85,0,0,0-7.33-9.25C59.55,150.24,59.77,148.95,59.8,149Z"/><path class="i" d="M58.24,180.29c7.32,4.51,10.64,14.4,10.59,22.65,0,.43-.24,1.59-.34.51-.73-8.39-6.15-14.78-10.32-21.72A4.46,4.46,0,0,1,58.24,180.29Z"/><path class="i" d="M63,198c4.82,4.58,7.56,12.29,9.47,18.5.14.45-.15,2.41-.28,2-2.31-6.79-6.44-12.55-9.31-19.06A3.22,3.22,0,0,1,63,198Z"/><path class="i" d="M75.45,237.22c6.26,2.72,9.54,11,17.22,11.18.2,0,.24,1.85,0,1.91-3.93.84-6.38-.49-9.41-3a44.84,44.84,0,0,1-7.83-8.81A3.23,3.23,0,0,1,75.45,237.22Z"/><path class="j" d="M45.4,147.25a31.11,31.11,0,0,0-1,14.75c-3.35.5-6.78,2-10.26,2.58C22.69,166.34,9.52,144.93,45.4,147.25Z"/><path class="i" d="M95.15,293.84c0,.45.19.47.22,0a93,93,0,0,1,2.18-15.57,92.32,92.32,0,0,0-.3,14c0,.54.18.24.19-.12,0-.74.11-1.46.16-2.19,0,.68.09,1.37.19,2,.07.45.19-.39.19-.49a41.47,41.47,0,0,1,.34-5.72c.15,13.67,1.27,27.48,1.75,34.84,1.05,16.23,27.82,20.45,37.73,6.53s-12.86-18.76-12.86-18.76-4.43-1.68,2.11-12.44c5.89-9.69,27.87,6.3,32.14,9.55-.22.86-.4,1.73-.54,2.6-1.52,4.94-1,11.66.17,15.41,0,.11.07,0,.11-.09a2.25,2.25,0,0,0,.12-.66.75.75,0,0,1,0-.09,1,1,0,0,0,0-.1c0-.31,0-.6,0-.9,0-1.11-.09-2.22-.13-3.33s0-2.24.13-3.33c0,.22,0,.44,0,.66,0,3.31-.1,9.31,2.89,11.52.36,3.89.72,7.66,1,10.69,1.05,11,30.14,21.5,37.52,4.43s-14.33-19.81-14.33-19.81c-2.95-23.4,3-28.24,9.91-27.61s1.05,13.7,4.85,25.09,25.93,9.27,32.46-2.74-9.28-15.81-13.7-19.39c-1.67-1.35-1.78-10.31-1.27-20.95.66.84,1.33,1.68,2,2.53a11.47,11.47,0,0,0,.35-3.58c-.62-2.43-1.28-4.84-1.87-7.27,0-.75.1-1.51.16-2.26a19.1,19.1,0,0,0,3,5.39,2.49,2.49,0,0,0,.08-.81,61.24,61.24,0,0,1-2.46-12.7c1-11.52,2.08-21.05,2.08-21.05s-52.91-13.7-55.12-7.8A65.9,65.9,0,0,1,161.9,239a32.71,32.71,0,0,0-6.74-3.24c-2-.8-4.06-1.52-6.16-2.17,0,0-.18,1.18,0,1.32a35.27,35.27,0,0,0,3.26,2.71c-1.3-.27-2.59-.57-3.85-.93-3.08-2.08-7.66-5.11-9.79-4.69a5.37,5.37,0,0,0-.06,2.41l1.27.73c-4.21-1.37-8.4-2.84-12.67-4.06,0,.17,0,.33,0,.49-.12,1-.54,3.5-.09,3.76l.48.3a28,28,0,0,0-12.93.09,3.52,3.52,0,0,0,0,1.22,56.11,56.11,0,0,0,6.53,1.21c-7.6,2-11.06,6.23-16.17,10.37-3.63,3-5.41,11-6.15,20.83C94.79,276.07,94.76,287.16,95.15,293.84Zm65.08,15.61c.31,3.41.82,8.95,1.35,14.65A34.75,34.75,0,0,1,160.23,309.45Z"/><path class="k" d="M218.51,239.64a34.59,34.59,0,0,1-5.64,2l-1.25.06c-4.7-.11-9.33-.5-14-1q-3.47-.42-6.94-.77l-.72-.11c-3.59-.63-7.19-1.26-10.74-2.09q-7.35-1.71-14.6-3.85c.67-1.4,1.35-2.94,1.95-4.52,2.21-5.9,55.12,7.8,55.12,7.8s-.06.55-.17,1.51A27.49,27.49,0,0,0,218.51,239.64Z"/><path class="k" d="M219,266.31c-.06.76-.11,1.51-.16,2.26.59,2.43,1.25,4.84,1.87,7.27a11.47,11.47,0,0,1-.35,3.58c-.68-.85-1.35-1.69-2-2.53-.47,9.83-.41,18.22.92,20.5H219c-.85-1.85-1.9-4.17-1.9-3.81a127.9,127.9,0,0,1-4.48-19.52c.44,1.95-.49-8.94-.48-10.24,0-2.34.07-4.68.21-7,.31-.39,1.87-8.55,2.53-10.67q.88-2.8,1.86-5.56c.34-.75.71-1.52,1-2.08a27.32,27.32,0,0,0,3.91-.7c-.26,2.33-1.17,10.63-2,20.38a61.24,61.24,0,0,0,2.46,12.7,2.49,2.49,0,0,1-.08.81A19.1,19.1,0,0,1,219,266.31Z"/><path class="k" d="M161.29,238.74c-4.7.42-9.41.72-14.12,1-12.77.71-25.39,1.6-37.29,4.55a27.45,27.45,0,0,1,11.19-6.13,56.11,56.11,0,0,1-6.53-1.21,3.52,3.52,0,0,1,0-1.22,28,28,0,0,1,12.93-.09l-.48-.3c-.45-.26,0-2.71.09-3.76,0-.16,0-.33,0-.49,4.27,1.22,8.45,2.69,12.67,4.06l-1.27-.73a5.37,5.37,0,0,1,.06-2.41c2.13-.42,6.71,2.62,9.79,4.69,1.26.35,2.56.65,3.85.93a35.27,35.27,0,0,1-3.26-2.71c-.15-.14.07-1.31,0-1.32,2.1.64,4.12,1.36,6.16,2.17a35.4,35.4,0,0,1,6.3,3Z"/><path class="k" d="M137.42,175.54s-27.9-43.22-15-60.69c0,0,12.13-7.48,48.67,11.1Z"/><path class="j" d="M124.68,121.45a47.8,47.8,0,0,1,43.6,8.69l2.84-4.18c-36.54-18.59-48.67-11.1-48.67-11.1a18,18,0,0,0-3.19,8.62A46.78,46.78,0,0,1,124.68,121.45Z"/><path class="e" d="M136.61,175.79s-23.46-36.2-12.53-50.86c0,0,10.25-6.29,41.05,9.23Z"/><path class="f" d="M132,133.68a47.15,47.15,0,0,1,32.18,1.87l1-1.39c-30.8-15.52-41.05-9.23-41.05-9.23-2.63,3.52-3.25,8.3-2.71,13.51A46.14,46.14,0,0,1,132,133.68Z"/><path class="k" d="M264,175.42s27.9-43.22,15-60.69c0,0-12.13-7.48-48.67,11.11Z"/><path class="j" d="M276.7,121.32A47.8,47.8,0,0,0,233.1,130l-2.84-4.18c36.54-18.59,48.67-11.11,48.67-11.11a18,18,0,0,1,3.19,8.62A46.91,46.91,0,0,0,276.7,121.32Z"/><path class="e" d="M264.77,175.67s23.46-36.2,12.53-50.86c0,0-10.25-6.29-41.05,9.23Z"/><path class="f" d="M269.38,133.56a47.15,47.15,0,0,0-32.18,1.87l-1-1.39c30.8-15.52,41.05-9.23,41.05-9.23,2.63,3.53,3.25,8.3,2.71,13.51A46.19,46.19,0,0,0,269.38,133.56Z"/><path class="i" d="M124.39,198.08c0,.08,0,.91.11.67a43.77,43.77,0,0,1,2.34-6.09,24.05,24.05,0,0,1,1.57-2.7,42.39,42.39,0,0,0-2.38,7.21,32.12,32.12,0,0,0-.68,9.39c0-.07.06.68.11.64q.83-.68,1.58-1.4c-.18.84-.45,3.73,0,3.93a5.69,5.69,0,0,0,6.56-.91c4.62,8.14,12.91,15.3,25.91,20.69,33.26,13.8,85.66,11.94,103.43-14.47,1.25,2.23,2.56,4.44,3.85,6.6,0,.07.08.08.12,0,2-4.17,1.83-8.23.89-12.33a82.79,82.79,0,0,1,4.22,7.55,11.26,11.26,0,0,0,.29-1.8,78.78,78.78,0,0,0-.67-9.92,17.13,17.13,0,0,0-.59-3.58c0-.14-.1-.29-.14-.43a40.28,40.28,0,0,0-1.84-6.1c0-.63,0-1.27,0-1.91a17.93,17.93,0,0,1,1.59,1.57c1.94,2.19,3.54,4.69,5.6,6.76a3.23,3.23,0,0,0,.09-1.22,26,26,0,0,0-6.68-10.3l-.81-.71c-1.41-14.27-9.07-32-25.47-53.58,0,0-12.46-13.33-30.38-18.46a51.79,51.79,0,0,1,5.9-.76,2.38,2.38,0,0,0,0-1.22c-3.25-1.53-6.46-1.84-9.22-.75a10.77,10.77,0,0,0,.81-1l0-.06c.25-.37.45-3.37,0-3.57a10,10,0,0,0-6.56-.76c.11-1.24.09-2.7-.21-2.79-6.6-2-13.1,5.15-16.53,10.57-.55.16-1.12.34-1.68.52,1.47-3.58,5.47-5.76,8.22-8.41.17-.16.25-1.84,0-1.91-3.47-1.1-7.12,3.38-8.22,6.25a39.6,39.6,0,0,0-.74,4.3,53.13,53.13,0,0,0-15.21,8.3c-20.53,15.73-37.63,38.42-40.31,59.45a2.64,2.64,0,0,0-.5.42,13.07,13.07,0,0,0-2.36,3.6A25.43,25.43,0,0,0,124.39,198.08Zm146.68,14a8.67,8.67,0,0,0,.21-1.27,10,10,0,0,0,0-2c0-.21.13-.41.16-.63,0,.32.09.65.11,1C271.89,212.68,271.62,212.93,271.07,212ZM127.35,197.2c-.09.64-.15,1.22-.19,1.65-.07.68-.17,1.74-.2,2.88-.12.11-.23.22-.35.32-2,1.52.21-3.47.5-4.26C127.19,197.59,127.27,197.4,127.35,197.2Z"/><path class="k" d="M268,210.43a18,18,0,0,1-.53,9.79C267.81,217,268,213.71,268,210.43Z"/><path class="j" d="M218,204c-3.79,9.17-17.7,8.5-19.62-1.59-.14-.75,1-1.07,1.15-.31,1.67,8.8,13.94,9.79,17.33,1.58.29-.7,1.44-.39,1.15.32Z"/><path class="j" d="M180.49,203.73c3.39,8.21,15.65,7.22,17.33-1.58.14-.75,1.29-.43,1.15.31-1.92,10.09-15.83,10.76-19.62,1.59-.29-.71.86-1,1.15-.32Z"/><path class="l" d="M207.34,199s-6.58-8.29-16,0C191.32,199,197.61,211,207.34,199Z"/><path class="k" d="M188.89,331.45c-.06,0,0-.36,0-.38,8.54-2.13,8.16,14.68,3.13,17.86,0,0-.05-.32,0-.38,2.41-3.43,3.86-7.19,3.15-11.49C194.55,333.32,192.1,332.36,188.89,331.45Z"/><path class="k" d="M178.72,349c1.85-1.35,3.46-2.41,4.73-4.39,2.73-4.26,1.47-8.16-1.87-11.16,0,0,0-.32,0-.31,6.91,1.38,3.32,16.39-2.88,16.29C178.64,349.48,178.66,349.08,178.72,349Z"/><path class="k" d="M127.07,315.3c-.06,0-.05-.41,0-.42,7.06-.65,8.25,17.49.51,17.34-.06,0-.06-.34,0-.37C135.13,329.26,133.4,318.11,127.07,315.3Z"/><path class="k" d="M115.33,332.51c3.56-2.49,5.75-4.53,4.94-9.64a10.9,10.9,0,0,0-4.43-7c-.11-.08,0-.64,0-.62,3.32,1.74,4.94,5.67,4.86,9.32-.07,3.22-1.42,8.34-5.4,8.54C115.23,333.15,115.24,332.57,115.33,332.51Z"/><path class="k" d="M221,307.48c-.06,0,0-.4,0-.43,3.34-1.86,4.69,7.78,4.81,9.48.19,2.75-.16,10-4.56,9-.09,0-.08-.55,0-.59,4.48-1.55,4.72-6,4.05-10.27C224.87,312,223.91,308.36,221,307.48Z"/><path class="k" d="M210.28,308.31c-.09-.07,0-.53,0-.52,3.38,1.57,5,5.29,4.87,8.9-.09,3.06-1,8-4.37,9.07,0,0,0-.41,0-.46a19.56,19.56,0,0,0,3.54-5.31C216.2,315.15,213.81,311.06,210.28,308.31Z"/><ellipse class="g" cx="228.32" cy="179.6" rx="5.49" ry="9.9" transform="translate(-50.4 97.73) rotate(-21.82)"/><circle class="h" cx="231.09" cy="173.5" r="3.12" transform="translate(-47.95 98.4) rotate(-21.84)"/><ellipse class="g" cx="167.8" cy="179.6" rx="9.9" ry="5.49" transform="matrix(0.37, -0.93, 0.93, 0.37, -61.31, 268.61)"/><circle class="h" cx="165.02" cy="173.5" r="3.11" transform="translate(-57.41 262.15) rotate(-68.16)"/><path class="h" d="M188.71,284c1.75,2.38,3.53,4.58,6.79,3.74,2.51-.65,3.71-5.3,4.9-7.18,3-4.69,7.14-9.33,7.62-15.12.32-3.84,0-10.22-5-11.18-2.63-.5-4.09.8-5.56,2.89-.64.91-3.74,4.9-3.69,5.67-.11-1.49-.36-.84-.53.06a1.08,1.08,0,0,0,0-.21c-1.28-5.25-14.84-19.43-16.3-7.62C175.67,265.18,183,276.25,188.71,284Z"/><path class="h" d="M146.92,196.11c6.78,1.56,13.43,3.47,20.35,4.42,0,0,0,.22,0,.22a90.24,90.24,0,0,1-20.35-4.3S146.92,196.11,146.92,196.11Z"/><path class="h" d="M142.19,208.81c8.15-2.38,16.77-2.41,25.08-4,0,0,0,.43,0,.45-8.11,2.46-16.77,2.4-25.07,4C142.19,209.18,142.15,208.83,142.19,208.81Z"/><path class="h" d="M151.28,216.83c5-2.69,10.45-4.59,15.63-6.91,0,0,0,.3,0,.33a91.19,91.19,0,0,1-15.63,6.9S151.23,216.85,151.28,216.83Z"/><path class="h" d="M226.5,207.81c8.56,1.68,16.64,5.39,24.35,9.4,0,0,0,.29,0,.29-8.14-3.13-15.95-7-24.35-9.5C226.47,208,226.5,207.81,226.5,207.81Z"/><path class="h" d="M229.77,205c5-.18,10.22.3,15.26.62a.65.65,0,0,1,0,.27,67.78,67.78,0,0,1-15.26-.83S229.76,205,229.77,205Z"/><path class="h" d="M227.22,200.87c5.05-1.93,9.82-4.44,15.26-5.05,0,0,0,.19,0,.2-5.3,1.06-10.19,3.34-15.26,5.12C227.23,201.13,227.18,200.88,227.22,200.87Z"/><ellipse class="h" cx="167.8" cy="152.8" rx="7.34" ry="3.08" transform="translate(-31.32 43.92) rotate(-13.65)"/><ellipse class="h" cx="234.21" cy="152.8" rx="3.08" ry="7.34" transform="translate(30.45 344.33) rotate(-76.35)"/></svg>