<svg xmlns="http://www.w3.org/2000/svg" width="53.807" height="46.2" viewBox="0 0 53.807 46.2"><g transform="translate(0)"><path d="M36.277,23.612c-3.376-2.9-4.52-8.472-9.911-8.472-5.65,0-6.48,5.661-9.857,8.781C13.787,26.409,5.4,29.731,7.946,33.967c4.86,8.069,8.25.955,18.42.955s13.818,7.073,18.42-.955C47.522,29.22,39.272,26.194,36.277,23.612Z" transform="translate(2.673 5.24)" fill="#fff"/><path d="M17.975,19.087A5.521,5.521,0,0,0,23.53,13.6c-.014-3.026.817-14.16-5.555-13.6S10.9,10.212,12.421,13.574C13.659,16.358,14.9,19.087,17.975,19.087Z" transform="translate(4.216 0.015)" fill="#fff"/><path d="M12.937,26.857a5.46,5.46,0,0,0,2.832-7.235C14.53,16.852,9.207,7.344,5.136,9.415s-.83,11.874.531,14.631a5.6,5.6,0,0,0,7.27,2.811Z" transform="translate(1.113 3.166)" fill="#fff"/><path d="M40.7,9.384C37.982,8.416,36.838,13,34.66,15.758c-1.7,2.165-4.656,2.34-5.119,3.591-1.048,2.837,1.675,6.9,4.561,7.934A5.574,5.574,0,0,0,41.208,24C42.27,21.177,45.456,11.105,40.7,9.384Z" transform="translate(10.566 3.21)" fill="#fff"/><path d="M27.936,19.082c3.063,0,5.446-3.725,6.031-6.724C34.579,9.144,33.83-.067,27.936,0s-5.555,10.543-5.555,13.569A5.452,5.452,0,0,0,24,17.466a5.589,5.589,0,0,0,3.937,1.616Z" transform="translate(8.06 0.021)" fill="#fff"/><path d="M23.192,20.163c2.056,0,3.05,1.345,4.792,3.806A20.224,20.224,0,0,0,31.32,28,27.709,27.709,0,0,0,34.6,30.289c4.084,2.568,5.228,3.712,4.642,4.734-1.361,2.461-2.219,2.461-2.614,2.461a12.909,12.909,0,0,1-3.431-.9,29.187,29.187,0,0,0-10.02-1.977,28.359,28.359,0,0,0-9.979,2,12.372,12.372,0,0,1-3.363.9c-.368,0-1.212,0-2.723-2.542-.5-.941,3.131-3.335,4.7-4.317a25.857,25.857,0,0,0,3.39-2.434,20.458,20.458,0,0,0,3.227-4.155c1.811-2.824,2.723-3.9,4.779-3.9m0-2.69c-5.65,0-6.48,5.661-9.857,8.781C10.627,28.743,2.24,32.064,4.786,36.3c1.756,2.932,3.322,3.859,5.092,3.859,3.118,0,6.807-2.918,13.342-2.918s10.319,2.878,13.451,2.878c1.77,0,3.308-.928,4.983-3.833,2.723-4.747-5.514-7.773-8.509-10.355-3.376-2.9-4.52-8.472-9.911-8.472Z" transform="translate(1.531 6.04)" fill="#262625"/><path d="M15.282,5.04a1.042,1.042,0,0,1,.844.323c1.688,1.694,1.566,7.4,1.525,9.548v1.035a2.815,2.815,0,0,1-2.832,2.8c-1.116,0-1.743-.968-3.077-3.9A10.865,10.865,0,0,1,12.5,6.775a3.157,3.157,0,0,1,2.559-1.789h.218m0-2.69h-.476C8.421,2.875,7.726,12.5,9.251,15.866c1.252,2.77,2.491,5.487,5.555,5.487a5.521,5.521,0,0,0,5.555-5.487c0-2.945.79-13.6-5.078-13.6Z" transform="translate(3.07 0.803)" fill="#262625"/><path d="M3.219,14.136h0m0,0c1.361,0,5.051,4.76,6.9,8.9a2.768,2.768,0,0,1-.212,2.671,2.87,2.87,0,0,1-4.988-.4c-2.1-4.707-2.8-10.529-1.715-11.148m0-2.69a2.626,2.626,0,0,0-1.212.3C-2.09,13.854,1.232,23.63,2.471,26.4a5.586,5.586,0,0,0,9.65,1.108,5.43,5.43,0,0,0,.507-5.545c-1.116-2.5-5.568-10.5-9.407-10.5Z" transform="translate(-0.02 3.972)" fill="#262625"/><path d="M37.277,14.175h0m-.327.35c.83,1.2.463,5.742-1.443,10.919a2.9,2.9,0,0,1-3.689,1.668,5.278,5.278,0,0,1-3.009-4.034l.558-.269a10.723,10.723,0,0,0,4.22-3.026,25,25,0,0,0,2-3.147,20.984,20.984,0,0,1,1.293-2.084M28.89,22.621h0m7.9-11.027c-2.192,0-3.363,4.034-5.337,6.509-1.7,2.165-4.656,2.34-5.119,3.591-1.048,2.837,1.675,6.9,4.561,7.934a5.6,5.6,0,0,0,4.242-.185A5.5,5.5,0,0,0,38,26.345c1.048-2.837,4.248-12.91-.517-14.631a2.078,2.078,0,0,0-.708-.134Z" transform="translate(9.406 4.013)" fill="#262625"/><path d="M24.857,5.046a1.982,1.982,0,0,1,1.634.807c1.688,2,1.96,6.589,1.634,8.391-.395,2.179-2.124,4.492-3.349,4.492a2.815,2.815,0,0,1-2.832-2.8v-.484c0-9.01,1.783-10.382,2.873-10.408h0m0-2.69h-.041c-5.881.094-5.555,10.543-5.555,13.569a5.521,5.521,0,0,0,5.555,5.487c3.063,0,5.446-3.725,6.031-6.724.6-3.227-.136-12.358-5.949-12.358Z" transform="translate(6.918 0.824)" fill="#262625"/></g></svg>