<svg xmlns="http://www.w3.org/2000/svg" viewBox="0 0 505.11 457.5"><defs><style>.a{fill:#fcc018;}.b,.c{fill:none;stroke:#000;stroke-linejoin:round;stroke-width:19px;}.c{stroke-linecap:round;}</style></defs><title>pedidos</title><path class="a" d="M425.11,416h-288c-73.26,0-80-48-80-112q0-.14,0-.28a15.86,15.86,0,0,1,16-15.72h112V0l32,16,32-16L281,16,313.42,0l31.69,16L376.9,0l31.93,16L441.11,0l32,16,32-16V336a80,80,0,0,1-80,80h0a80,80,0,0,1-80-80"/><polyline class="b" points="137.5 320 137.5 32 169.5 48 201.5 32 233.44 48 265.81 32 297.5 48 329.29 32 361.22 48 393.5 32 425.51 48 457.5 32 457.5 256"/><path class="b" d="M457.5,256V368a80,80,0,0,1-80,80h0a80,80,0,0,1-80-80V320H25.5a15.86,15.86,0,0,0-16,15.72q0,.14,0,.28c0,64,6.74,112,80,112h288"/><line class="c" x1="201.5" y1="128" x2="393.5" y2="128"/><line class="c" x1="265.5" y1="208" x2="393.5" y2="208"/></svg>