<svg xmlns="http://www.w3.org/2000/svg" width="49.955" height="48.796" viewBox="0 0 49.955 48.796"><path d="M62.174,0A23.021,23.021,0,0,0,39,22.891a23.176,23.176,0,0,0,46.348,0A23.021,23.021,0,0,0,62.174,0Z" transform="translate(-35.393)" fill="#fff"/><path d="M192.082,134.375a1.205,1.205,0,0,1-1.012-.58,1.175,1.175,0,0,1-.033-1.155l14.09-26.8a1.21,1.21,0,0,1,1.622-.506,1.181,1.181,0,0,1,.512,1.6l-14.09,26.8A1.2,1.2,0,0,1,192.082,134.375Z" transform="translate(-173.246 -95.585)" fill="#fcf217"/><path d="M320.565,273.652a5.991,5.991,0,1,1,6.065-5.991A6.028,6.028,0,0,1,320.565,273.652Zm0-9.973a3.981,3.981,0,1,0,4.03,3.981A4.006,4.006,0,0,0,320.565,263.679Z" transform="translate(-285.414 -237.766)" fill="#fcf217"/><path d="M122.575,146.152a5.991,5.991,0,1,1,6.065-5.991A6.028,6.028,0,0,1,122.575,146.152Zm0-9.972a3.981,3.981,0,1,0,4.03,3.981,4.006,4.006,0,0,0-4.03-3.981Z" transform="translate(-105.735 -121.913)" fill="#fcf217"/><path d="M22.9,39a22.618,22.618,0,1,0,0,45.233A22.618,22.618,0,1,0,22.9,39Zm0,42.958A20.342,20.342,0,1,1,43.489,61.617,20.491,20.491,0,0,1,22.9,81.958Z" transform="translate(0 -35.437)" fill="#262625"/><path d="M154.582,159.375a1.205,1.205,0,0,1-1.012-.58,1.175,1.175,0,0,1-.033-1.155l14.09-26.8a1.21,1.21,0,0,1,1.622-.506,1.181,1.181,0,0,1,.512,1.6l-14.09,26.8A1.2,1.2,0,0,1,154.582,159.375Z" transform="translate(-139.214 -118.301)" fill="#252526"/><path d="M283.065,298.642a5.991,5.991,0,1,1,6.065-5.991A6.028,6.028,0,0,1,283.065,298.642Zm0-9.973a3.981,3.981,0,1,0,4.03,3.981,4.006,4.006,0,0,0-4.03-3.981Z" transform="translate(-251.382 -260.473)" fill="#252526"/><path d="M85.075,171.152a5.991,5.991,0,1,1,6.065-5.991A6.028,6.028,0,0,1,85.075,171.152Zm0-9.972a3.981,3.981,0,1,0,4.03,3.981,4.006,4.006,0,0,0-4.03-3.981Z" transform="translate(-71.703 -144.629)" fill="#252526"/></svg>