<svg xmlns="http://www.w3.org/2000/svg" viewBox="0 0 44.87 35.21"><title>snack</title><g id="Capa_2" data-name="Capa 2"><g id="Capa_1-2" data-name="Capa 1"><rect x="6.87" y="17" width="38" height="15.25" rx="5.62" ry="5.62" style="fill:#ffc111"/><circle cx="13.37" cy="16.75" r="8.5" style="fill:#ffc111"/><circle cx="22.49" cy="8.38" r="8.37" transform="translate(11.34 29.63) rotate(-82.75)" style="fill:#ffc111"/><circle cx="34.87" cy="17.75" r="9.5" style="fill:#ffc111"/><path d="M43.29,22H41.8a10.29,10.29,0,0,0-10.25-9.54l-.76,0c0-.25,0-.51,0-.76a10.27,10.27,0,0,0-20.35-2A10.29,10.29,0,0,0,2.2,19.8V22H.73a.73.73,0,0,0-.73.73A12.49,12.49,0,0,0,12.47,35.21H31.55A12.49,12.49,0,0,0,44,22.73.73.73,0,0,0,43.29,22Zm-3,0H38.12A6.6,6.6,0,0,0,25,22H22.78a8.81,8.81,0,0,1,17.55,0ZM26.47,22a5.14,5.14,0,0,1,10.17,0Zm-8.86-2a8.89,8.89,0,0,1-5.37-5.36h.23a5.14,5.14,0,0,1,5.14,5.14Zm-6.82-5.08a10.36,10.36,0,0,0,6.82,6.63V22H7.34V19.8A5.14,5.14,0,0,1,10.79,14.95ZM22,23.47h7.77L16.19,30,5.54,23.47Zm.22-6.89A10.32,10.32,0,0,0,15.69,10a5.14,5.14,0,1,1,6.54,6.54ZM14.79,5.06a8.8,8.8,0,0,1,14.56,6.66,8.94,8.94,0,0,1-.05,1,10.2,10.2,0,0,0-2.41.87,6.6,6.6,0,0,0-12.62-3.9,10.29,10.29,0,0,0-1.79-.16H12A8.82,8.82,0,0,1,14.79,5.06ZM3.67,19.8a8.81,8.81,0,0,1,17.61,0V22h-2.2V19.8a6.6,6.6,0,0,0-13.21,0V22H3.67ZM31.55,33.74H12.47a11,11,0,0,1-11-10.27H2.73l13,8a.73.73,0,0,0,.7,0l16.73-8h9.35A11,11,0,0,1,31.55,33.74Z" style="fill:#262625"/></g></g></svg>