<svg xmlns="http://www.w3.org/2000/svg" width="56.663" height="47.304" viewBox="0 0 56.663 47.304"><g transform="translate(-7.364 -2.851)" style="isolation:isolate"><g transform="translate(7.364 2.851)"><g transform="translate(0 0)"><path d="M45.835,53.823c-3.5-2.639-4.364-7.427-10.224-7.427-5.649,0-6.793,4.709-10.281,7.166C22.223,55.745,13.665,58.3,16.5,62.32c4.773,6.825,8.558.808,19.107.808s14.122,6.04,19.107-.808C57.345,58.737,48.632,55.927,45.835,53.823Z" transform="translate(-4.622 -20.987)" fill="#fff"/><path d="M50.737,32.963c3.177,0,4.463-2.275,5.762-4.641,1.582-2.855.861-10.988-5.762-11.477s-5.818,8.918-5.818,11.477a4.244,4.244,0,0,0,1.708,3.3A6.552,6.552,0,0,0,50.737,32.963Z" transform="translate(-12.588 -7.51)" fill="#fff"/><path d="M71.395,34.983c-4.237-1.763-9.744,6.29-11.029,8.633a3.9,3.9,0,0,0,.525,4.69,6.416,6.416,0,0,0,5.347,1.905A5.753,5.753,0,0,0,70.9,47.37C72.2,44.97,75.617,36.689,71.395,34.983Z" transform="translate(-16.779 -15.482)" fill="#fff"/><path d="M17.079,50.181c2.994-.876,5.818-4.311,4.731-6.711-.48-1.058-3.545-1.217-5.31-3.037-2.245-2.343-3.488-6.21-6.256-5.357-4.929,1.456-1.624,9.975-.537,12.375,1.11,2.385,4.4,3.6,7.372,2.73Z" transform="translate(-2.109 -15.581)" fill="#fff"/><path d="M30.7,32.975c3.138-.05,5.649-2.113,5.649-4.641,0-2.559.353-11.374-5.762-11.477S23.71,24.57,24.331,27.311C24.966,29.791,27.48,32.975,30.7,32.975Z" transform="translate(-6.773 -7.523)" fill="#fff"/><path d="M74.76,25.9l2.824.751a14.488,14.488,0,0,0-2.824-8.076Z" transform="translate(-20.921 -8.186)" fill="#fff"/><path d="M51.494,0V7.553l2.824.523A14.5,14.5,0,0,0,51.494,0Z" transform="translate(-14.41)" fill="#fff"/><path d="M8.685,18.578A14.488,14.488,0,0,0,5.86,26.653L8.685,25.9Z" transform="translate(-1.624 -8.186)" fill="#fff"/><path d="M31.951,0a14.488,14.488,0,0,0-2.824,8.076l2.824-.6Z" transform="translate(-8.151)" fill="#fff"/><path d="M29.726,53.258c2.161,0,3.079.9,4.957,3.3a18.387,18.387,0,0,0,3.4,3.5A27.465,27.465,0,0,0,41.6,62.107c1.624.853,5.437,2.855,4.872,3.617-1.652,2.218-2.528,2.218-2.909,2.218a15.189,15.189,0,0,1-3.488-.762,35.3,35.3,0,0,0-10.351-1.695,36.341,36.341,0,0,0-10.394,1.672,15.869,15.869,0,0,1-3.559.762c-.4,0-1.243,0-2.711-2.082-.607-.853.565-1.831,4.83-4a29.656,29.656,0,0,0,3.4-1.922A18.417,18.417,0,0,0,24.741,56.5c1.793-2.116,2.824-3.219,4.971-3.219m0-2.275c-5.649,0-6.793,4.709-10.281,7.166C16.324,60.355,7.766,62.915,10.6,66.93c1.737,2.457,3.333,3.242,5.169,3.242,3.234,0,7.216-2.434,13.953-2.434s10.606,2.48,13.84,2.48c1.836,0,3.446-.785,5.282-3.264,2.641-3.583-6.072-6.392-8.883-8.5-3.5-2.639-4.364-7.416-10.224-7.416Z" transform="translate(-2.781 -22.913)" fill="#262625"/><path d="M44.385,23.657h.226a3.315,3.315,0,0,1,2.655,1.513,7.686,7.686,0,0,1,.791,6.825c-1.412,2.468-2.019,3.3-3.177,3.3a3.34,3.34,0,0,1-2.139-.7,2.148,2.148,0,0,1-.855-1.726v-.876c0-1.82-.155-6.643,1.582-8.076a1.223,1.223,0,0,1,.876-.273m0-2.275c-6.087,0-5.268,9-5.268,11.5,0,2.563,2.58,4.641,5.762,4.641S49.3,35.237,50.6,32.871c1.582-2.855.861-10.988-5.762-11.477h-.494Z" transform="translate(-10.948 -9.538)" fill="#262625"/><path d="M64.244,41.481c1.13.512.4,5.448-1.779,9.429a2.76,2.76,0,0,1-1.631,1.252,3.6,3.6,0,0,1-2.253-.047A2.211,2.211,0,0,1,57.084,49c1.921-3.492,5.649-7.473,7.16-7.518m0-2.275c-3.982,0-8.6,6.768-9.758,8.883a3.9,3.9,0,0,0,.525,4.69,6.416,6.416,0,0,0,5.347,1.905,5.753,5.753,0,0,0,4.662-2.842c1.285-2.343,4.7-10.624.48-12.375a3.232,3.232,0,0,0-1.257-.25Z" transform="translate(-15.15 -17.476)" fill="#262625"/><path d="M5.336,41.685h0M5,41.924a17.7,17.7,0,0,1,1.327,1.752,21.064,21.064,0,0,0,2.09,2.673A11.377,11.377,0,0,0,12.792,48.9l.579.227a4.678,4.678,0,0,1-3.121,3.412,3.542,3.542,0,0,1-1,.148,3.007,3.007,0,0,1-2.824-1.558c-1.977-4.368-2.358-8.212-1.5-9.225m.113-2.48a2.574,2.574,0,0,0-.734.114C-.624,40.991,2.681,49.51,3.768,51.91a5.165,5.165,0,0,0,2.986,2.654,7.033,7.033,0,0,0,4.443.144C14.19,53.833,17.015,50.4,15.927,48c-.48-1.058-3.545-1.217-5.31-3.037C8.57,42.822,7.369,39.444,5.1,39.444Z" transform="translate(-0.464 -17.574)" fill="#262625"/><path d="M24.743,23.731h0c1.13,0,3.022,1.137,2.98,8.792v.409a2.686,2.686,0,0,1-2.839,2.332c-1.271,0-3.064-1.956-3.474-3.8-.339-1.524,0-5.4,1.695-7.1a2.244,2.244,0,0,1,1.695-.682m0-2.275c-6.03,0-6.779,7.735-6.171,10.453.565,2.514,3.079,5.687,6.256,5.687,3.149-.05,5.665-2.127,5.649-4.664,0-2.559.424-11.431-5.649-11.431Z" transform="translate(-5.175 -9.555)" fill="#262625"/><path d="M68.9,23.149v7.325l2.824.751A14.488,14.488,0,0,0,68.9,23.149Z" transform="translate(-19.298 -10.2)" fill="#262625"/><path d="M45.633,4.552v7.587l2.824.523A14.5,14.5,0,0,0,45.633,4.6Z" transform="translate(-12.77 -1.901)" fill="#262625"/><path d="M2.824,23.149A14.488,14.488,0,0,0,0,31.225l2.824-.751Z" transform="translate(0 -10.2)" fill="#262625"/><path d="M26.09,4.552a14.488,14.488,0,0,0-2.824,8.076l2.824-.6Z" transform="translate(-6.511 -1.901)" fill="#262625"/></g></g></g></svg>